{
	"asset":{
		"generator":"Khronos glTF Blender I/O v4.4.56",
		"version":"2.0"
	},
	"extensionsUsed":[
		"KHR_materials_specular"
	],
	"scene":0,
	"scenes":[
		{
			"name":"Scene",
			"nodes":[
				0,
				1
			]
		}
	],
	"nodes":[
		{
			"extras":{
				"currentUVSet":"UVSet0"
			},
			"mesh":0,
			"name":"Maria_J_J_Ong",
			"rotation":[
				0.7071068286895752,
				0,
				0,
				0.7071068286895752
			],
			"scale":[
				0.009999999776482582,
				0.009999999776482582,
				0.009999999776482582
			]
		},
		{
			"extras":{
				"currentUVSet":"map1"
			},
			"mesh":1,
			"name":"Maria_sword",
			"rotation":[
				0.7071068286895752,
				0,
				0,
				0.7071068286895752
			],
			"scale":[
				0.009999999776482582,
				0.009999999776482582,
				0.009999999776482582
			]
		}
	],
	"materials":[
		{
			"doubleSided":true,
			"extensions":{
				"KHR_materials_specular":{
					"specularTexture":{
						"index":0
					}
				}
			},
			"extras":{
				"Emissive":[
					0.0,
					0.0,
					0.0
				],
				"Ambient":[
					0.0,
					0.0,
					0.0
				],
				"Diffuse":[
					1.0,
					1.0,
					1.0
				],
				"Specular":[
					0.5,
					0.5,
					0.5
				],
				"Shininess":20.0,
				"Opacity":1.0,
				"Reflectivity":0.0
			},
			"name":"MariaMat",
			"normalTexture":{
				"index":1
			},
			"pbrMetallicRoughness":{
				"baseColorTexture":{
					"index":2
				},
				"metallicFactor":0,
				"roughnessFactor":0.5527864098548889
			}
		}
	],
	"meshes":[
		{
			"name":"Maria_J_J_Ong",
			"primitives":[
				{
					"attributes":{
						"POSITION":0,
						"NORMAL":1,
						"TEXCOORD_0":2
					},
					"indices":3,
					"material":0
				}
			]
		},
		{
			"name":"Maria_sword",
			"primitives":[
				{
					"attributes":{
						"POSITION":4,
						"NORMAL":5,
						"TEXCOORD_0":6
					},
					"indices":7,
					"material":0
				}
			]
		}
	],
	"textures":[
		{
			"sampler":0,
			"source":0
		},
		{
			"sampler":0,
			"source":1
		},
		{
			"sampler":0,
			"source":2
		}
	],
	"images":[
		{
			"mimeType":"image/png",
			"name":"maria_specular",
			"uri":"maria_specular.png"
		},
		{
			"mimeType":"image/png",
			"name":"maria_normal",
			"uri":"maria_normal.png"
		},
		{
			"mimeType":"image/png",
			"name":"maria_diffuse",
			"uri":"maria_diffuse.png"
		}
	],
	"accessors":[
		{
			"bufferView":0,
			"componentType":5126,
			"count":9584,
			"max":[
				82.25895690917969,
				19.562793731689453,
				0.1471700817346573
			],
			"min":[
				-82.25904083251953,
				-16.927637100219727,
				-175.11045837402344
			],
			"type":"VEC3"
		},
		{
			"bufferView":1,
			"componentType":5126,
			"count":9584,
			"type":"VEC3"
		},
		{
			"bufferView":2,
			"componentType":5126,
			"count":9584,
			"type":"VEC2"
		},
		{
			"bufferView":3,
			"componentType":5123,
			"count":43698,
			"type":"SCALAR"
		},
		{
			"bufferView":4,
			"componentType":5126,
			"count":42,
			"max":[
				-58.26189041137695,
				99.2257308959961,
				-135.88174438476562
			],
			"min":[
				-133.01490783691406,
				-27.754810333251953,
				-157.8536376953125
			],
			"type":"VEC3"
		},
		{
			"bufferView":5,
			"componentType":5126,
			"count":42,
			"type":"VEC3"
		},
		{
			"bufferView":6,
			"componentType":5126,
			"count":42,
			"type":"VEC2"
		},
		{
			"bufferView":7,
			"componentType":5123,
			"count":240,
			"type":"SCALAR"
		}
	],
	"bufferViews":[
		{
			"buffer":0,
			"byteLength":115008,
			"byteOffset":0,
			"target":34962
		},
		{
			"buffer":0,
			"byteLength":115008,
			"byteOffset":115008,
			"target":34962
		},
		{
			"buffer":0,
			"byteLength":76672,
			"byteOffset":230016,
			"target":34962
		},
		{
			"buffer":0,
			"byteLength":87396,
			"byteOffset":306688,
			"target":34963
		},
		{
			"buffer":0,
			"byteLength":504,
			"byteOffset":394084,
			"target":34962
		},
		{
			"buffer":0,
			"byteLength":504,
			"byteOffset":394588,
			"target":34962
		},
		{
			"buffer":0,
			"byteLength":336,
			"byteOffset":395092,
			"target":34962
		},
		{
			"buffer":0,
			"byteLength":480,
			"byteOffset":395428,
			"target":34963
		}
	],
	"samplers":[
		{
			"magFilter":9729,
			"minFilter":9987
		}
	],
	"buffers":[
		{
			"byteLength":395908,
			"uri":"hero.bin"
		}
	]
}
